<svg width="512" height="512" viewBox="0 0 512 512" fill="none" xmlns="http://www.w3.org/2000/svg">
  <defs>
    <radialGradient id="bg" cx="0" cy="0" r="1" gradientUnits="userSpaceOnUse" gradientTransform="translate(184 156) rotate(51.4) scale(398.79)">
      <stop offset="0" stop-color="#173E58"/>
      <stop offset="0.52" stop-color="#0D2233"/>
      <stop offset="1" stop-color="#08111A"/>
    </radialGradient>
    <linearGradient id="film" x1="118" y1="136" x2="394" y2="378" gradientUnits="userSpaceOnUse">
      <stop offset="0" stop-color="#F8C96A"/>
      <stop offset="1" stop-color="#D8842F"/>
    </linearGradient>
    <linearGradient id="core" x1="186" y1="181" x2="344" y2="342" gradientUnits="userSpaceOnUse">
      <stop offset="0" stop-color="#112B3E"/>
      <stop offset="1" stop-color="#0A1823"/>
    </linearGradient>
    <linearGradient id="scan" x1="205" y1="188" x2="316" y2="319" gradientUnits="userSpaceOnUse">
      <stop offset="0" stop-color="#72E6F5"/>
      <stop offset="1" stop-color="#2BB6C7"/>
    </linearGradient>
    <filter id="shadow" x="78" y="78" width="356" height="356" filterUnits="userSpaceOnUse" color-interpolation-filters="sRGB">
      <feDropShadow dx="0" dy="14" stdDeviation="18" flood-color="#000000" flood-opacity="0.28"/>
    </filter>
    <mask id="filmMask">
      <rect width="512" height="512" fill="black"/>
      <circle cx="256" cy="256" r="168" fill="white"/>
      <circle cx="256" cy="256" r="124" fill="black"/>
      <rect x="245" y="92" width="22" height="40" rx="11" fill="black"/>
      <rect x="245" y="380" width="22" height="40" rx="11" fill="black"/>
      <rect x="380" y="245" width="40" height="22" rx="11" fill="black"/>
      <rect x="92" y="245" width="40" height="22" rx="11" fill="black"/>
      <rect x="345" y="133" width="24" height="40" rx="12" transform="rotate(45 345 133)" fill="black"/>
      <rect x="141" y="337" width="24" height="40" rx="12" transform="rotate(45 141 337)" fill="black"/>
      <rect x="337" y="371" width="24" height="40" rx="12" transform="rotate(135 337 371)" fill="black"/>
      <rect x="133" y="167" width="24" height="40" rx="12" transform="rotate(135 133 167)" fill="black"/>
    </mask>
    <clipPath id="avatarClip">
      <circle cx="256" cy="256" r="236"/>
    </clipPath>
  </defs>

  <g clip-path="url(#avatarClip)">
    <rect width="512" height="512" fill="url(#bg)"/>
    <circle cx="256" cy="256" r="236" fill="url(#bg)"/>

    <circle cx="256" cy="256" r="198" stroke="#8ED7E6" stroke-opacity="0.10" stroke-width="2"/>
    <path d="M116 246C125 166 189 106 270 106C309 106 344 118 374 141" stroke="#7FE5F2" stroke-opacity="0.18" stroke-width="8" stroke-linecap="round"/>
    <path d="M399 265C391 344 326 406 244 406C204 406 168 393 138 369" stroke="#F4C56B" stroke-opacity="0.20" stroke-width="8" stroke-linecap="round"/>
    <path d="M151 123C179 105 212 96 247 96" stroke="#FFFFFF" stroke-opacity="0.10" stroke-width="5" stroke-linecap="round"/>

    <g filter="url(#shadow)">
      <rect width="512" height="512" fill="url(#film)" mask="url(#filmMask)"/>
    </g>

    <circle cx="256" cy="256" r="111" fill="#09131C" fill-opacity="0.88"/>
    <circle cx="256" cy="256" r="96" fill="url(#core)" stroke="#254A60" stroke-width="2"/>

    <path d="M214 256C214 232.804 232.804 214 256 214C270.445 214 283.186 221.297 290.744 232.397" stroke="url(#scan)" stroke-width="12" stroke-linecap="round"/>
    <path d="M298 256C298 279.196 279.196 298 256 298C241.555 298 228.814 290.703 221.256 279.603" stroke="#F0B95A" stroke-width="12" stroke-linecap="round"/>

    <path d="M238 223L286 256L238 289V223Z" fill="#F4C56B"/>
    <path d="M236 222L285 256L236 290" stroke="#FFE0A8" stroke-opacity="0.45" stroke-width="3" stroke-linejoin="round"/>

    <circle cx="256" cy="256" r="27" stroke="#0B1924" stroke-opacity="0.52" stroke-width="18"/>
    <circle cx="256" cy="256" r="7" fill="#08111A"/>

    <path d="M325 176L331 192L347 198L331 204L325 220L319 204L303 198L319 192L325 176Z" fill="#74ECF8"/>
    <circle cx="339" cy="239" r="5" fill="#74ECF8" fill-opacity="0.82"/>
    <circle cx="177" cy="316" r="4" fill="#F0B95A" fill-opacity="0.72"/>
    <circle cx="202" cy="182" r="3" fill="#FFFFFF" fill-opacity="0.65"/>
  </g>
</svg>
